<svg width="256" height="256" viewBox="0 0 256 256" fill="none" xmlns="http://www.w3.org/2000/svg">
<rect width="256" height="256" rx="64" fill="#0C0C0C"/>
<path d="M114.24 181C104.88 181 98.1 178.9 93.9 174.7C89.7 170.5 87.6 163.72 87.6 154.36V103.96H64.2V91H87.6V60.4H102V91H150.6V103.96H102V153.28C102 158.68 103.02 162.46 105.06 164.62C107.22 166.66 111 167.68 116.4 167.68H150.6V181H114.24Z" fill="white"/>
<path d="M180.159 182.44C177.039 182.44 174.459 181.48 172.419 179.56C170.379 177.64 169.359 175.12 169.359 172C169.359 168.88 170.379 166.36 172.419 164.44C174.459 162.52 177.039 161.56 180.159 161.56C183.279 161.56 185.859 162.52 187.899 164.44C189.939 166.36 190.959 168.88 190.959 172C190.959 175.12 189.939 177.64 187.899 179.56C185.859 181.48 183.279 182.44 180.159 182.44Z" fill="#6BD600"/>
</svg>
